<svg xmlns="http://www.w3.org/2000/svg" viewBox="0 0 100 100" preserveAspectRatio="none">
  <path d="M 0 0 
           Q 2 1 4 0 
           Q 6 0.5 8 0 
           Q 10 2 12 0 
           Q 14 1.5 16 3 
           Q 18 1.5 20 0.5 
           Q 22 2.5 24 4 
           Q 26 2.5 28 1 
           Q 30 3 32 5 
           Q 34 3.5 36 2 
           Q 38 4 40 6 
           Q 42 4.5 44 3 
           Q 46 5 47 7 
           Q 48.5 50 50 100 
           Q 51.5 50 53 7 
           Q 54 5 56 3 
           Q 58 4.5 60 6 
           Q 62 4 64 2 
           Q 66 3.5 68 5 
           Q 70 3 72 1 
           Q 74 2.5 76 4 
           Q 78 2.5 80 0.5 
           Q 82 1.5 84 3 
           Q 86 1.5 88 0 
           Q 90 2 92 0 
           Q 94 0.5 96 0 
           Q 98 1 100 0 
           L 100 100 
           L 0 100 Z" 
        fill="#888888"/>
</svg>

